<mxfile host="app.diagrams.net" modified="2021-02-27T18:05:22.736Z" agent="5.0 (Windows NT 10.0; Win64; x64) AppleWebKit/537.36 (KHTML, like Gecko) Chrome/88.0.4324.190 Safari/537.36" etag="6Z9byTDTPaZtAqjb0o6s" version="14.4.3" type="github">
  <diagram id="RSnsN0nDcEQl9v2OnTHO" name="Page-1">
    <mxGraphModel dx="1360" dy="772" grid="1" gridSize="10" guides="1" tooltips="1" connect="1" arrows="1" fold="1" page="1" pageScale="1" pageWidth="900" pageHeight="1600" math="0" shadow="0">
      <root>
        <mxCell id="0" />
        <mxCell id="1" parent="0" />
      </root>
    </mxGraphModel>
  </diagram>
</mxfile>
